# xmcd CD database file
#
# Track frame offsets:
#	150
#	23280
#	51589
#	74497
#	89695
#	112495
#	128770
#	164425
#	185415
#	217152
#	232440
#	252757
#
# Disc length: 3798 seconds
#
# Revision: 2
# Processed by: cddbd v1.5PL3 Copyright (c) Steve Scherf et al.
# Submitted via: CDex 1.51
#
DISCID=bd0ed40c
DTITLE=Margie Evans - Drowning In The Sea Of Love
DYEAR=1996
DGENRE=Blues
TTITLE0=Dont You Worry
TTITLE1=Good Thing Queen
TTITLE2=Women, I Wonder Why
TTITLE3=I can't get You Off My Mind
TTITLE4=Giving Up the Streets for Love
TTITLE5=Drowning in the Sea of Love
TTITLE6=Just a Closer Walk with Thee
TTITLE7=Another Blues Day
TTITLE8=Trouble Trouble
TTITLE9=Evil Gal Blues
TTITLE10=Let the Telephone Ring
TTITLE11=In His Eyes
EXTD=YEAR: 1996
EXTT0=
EXTT1=
EXTT2=
EXTT3=
EXTT4=
EXTT5=
EXTT6=
EXTT7=
EXTT8=
EXTT9=
EXTT10=
EXTT11=
PLAYORDER=
